<?xml version="1.0" standalone="no"?>
<!DOCTYPE svg PUBLIC "-//W3C//DTD SVG 20010904//EN"
 "http://www.w3.org/TR/2001/REC-SVG-20010904/DTD/svg10.dtd">
<svg version="1.0" xmlns="http://www.w3.org/2000/svg"
 width="192.000000pt" height="192.000000pt" viewBox="0 0 192.000000 192.000000"
 preserveAspectRatio="xMidYMid meet">

<g transform="translate(0.000000,192.000000) scale(0.100000,-0.100000)"
fill="#000000" stroke="none">
<path d="M828 1909 c-250 -36 -480 -171 -630 -369 -67 -88 -143 -247 -167
-349 -79 -333 14 -668 253 -907 463 -462 1238 -335 1533 251 60 119 103 299
103 432 l0 43 -510 0 -510 0 0 455 c0 250 -3 454 -7 454 -5 -1 -34 -5 -65 -10z
m-248 -401 l24 -78 93 0 c56 0 93 -4 93 -10 0 -6 -31 -33 -70 -61 -38 -28 -70
-55 -70 -58 0 -4 11 -41 25 -81 14 -40 25 -80 25 -87 0 -9 -23 2 -60 29 -34
24 -69 49 -79 56 -16 11 -28 5 -92 -42 -41 -30 -75 -50 -77 -46 -2 5 8 46 23
91 14 45 22 85 18 89 -4 4 -35 27 -68 51 -33 24 -63 49 -65 54 -3 6 31 12 89
15 l94 5 24 70 c33 100 33 99 42 89 4 -5 18 -44 31 -86z"/>
</g>
</svg>
